<svg width="399" height="146" viewBox="0 0 399 146" fill="none" xmlns="http://www.w3.org/2000/svg">
<path d="M-112 233.591L430 0.000976562V8.17663L-112 233.591Z" fill="#00BBA7"/>
<path d="M12.403 210.816L430 32.7036L425.328 42.0472L12.403 210.816Z" fill="#00BBA7"/>
<path d="M230.254 153.003L430 67.7421V74.7498L236.095 155.922L230.254 153.003Z" fill="#00BBA7"/>
<path d="M264.713 169.938L430 102.781V109.204L268.802 174.61L264.713 169.938Z" fill="#00BBA7"/>
<path d="M290.996 193.881L430 130.811L425.328 141.907L296.252 197.385L290.996 193.881Z" fill="#00BBA7"/>
<path d="M318.446 214.904L425.328 169.938V174.61L322.534 218.408L318.446 214.904Z" fill="#00BBA7"/>
<path d="M425.328 200.889L275.226 266.878H236.095L173.017 210.816L-44.834 379.001L307.933 336.371L298.334 327.283L425.328 274.469V269.798L295.459 324.561L273.003 303.303L430 228.919V224.831L270.201 300.65L253.032 284.397L425.328 206.728V200.889Z" fill="#00BBA7"/>
<path d="M279.899 364.986L425.328 302.5V306.004L283.403 367.905L279.899 364.986Z" fill="#00BBA7"/>
<path d="M368.091 360.898C387.17 352.722 426.262 334.969 430 329.363V336.371L372.179 364.986L368.091 360.898Z" fill="#00BBA7"/>
</svg>
